<?xml version="1.0" encoding="UTF-8" standalone="no"?>
<svg
   width="1235"
   height="650"
   version="1.1"
   id="svg27"
   sodipodi:docname="Flag_of_the_United_States_60_Stars_9_8_9_8_9_8_9_(Pantone).svg"
   inkscape:version="1.3.2 (091e20e, 2023-11-25, custom)"
   xmlns:inkscape="http://www.inkscape.org/namespaces/inkscape"
   xmlns:sodipodi="http://sodipodi.sourceforge.net/DTD/sodipodi-0.dtd"
   xmlns:xlink="http://www.w3.org/1999/xlink"
   xmlns="http://www.w3.org/2000/svg"
   xmlns:svg="http://www.w3.org/2000/svg">
  <sodipodi:namedview
     id="namedview27"
     pagecolor="#505050"
     bordercolor="#ffffff"
     borderopacity="1"
     inkscape:showpageshadow="0"
     inkscape:pageopacity="0"
     inkscape:pagecheckerboard="1"
     inkscape:deskcolor="#d1d1d1"
     inkscape:zoom="0.51174089"
     inkscape:cx="496.34494"
     inkscape:cy="225.70016"
     inkscape:window-width="1358"
     inkscape:window-height="701"
     inkscape:window-x="-6"
     inkscape:window-y="-6"
     inkscape:window-maximized="1"
     inkscape:current-layer="svg27" />
  <defs
     id="defs19">
    <polygon
       id="pt"
       points="-0.1624598481164531,0 0,-0.5 0.1624598481164531,0"
       transform="scale(0.0616)"
       fill="#FFF" />
    <g
       id="star">
      <use
         xlink:href="#pt"
         transform="rotate(-144)"
         id="use1" />
      <use
         xlink:href="#pt"
         transform="rotate(-72)"
         id="use2" />
      <use
         xlink:href="#pt"
         id="use3" />
      <use
         xlink:href="#pt"
         transform="rotate(72)"
         id="use4" />
      <use
         xlink:href="#pt"
         transform="rotate(144)"
         id="use5" />
    </g>
    <g
       id="s5">
      <use
         xlink:href="#star"
         x="-0.252"
         id="use6" />
      <use
         xlink:href="#star"
         x="-0.126"
         id="use7" />
      <use
         xlink:href="#star"
         id="use8" />
      <use
         xlink:href="#star"
         x="0.126"
         id="use9" />
      <use
         xlink:href="#star"
         x="0.252"
         id="use10" />
    </g>
    <g
       id="s6">
      <use
         xlink:href="#s5"
         x="-0.063"
         id="use11" />
      <use
         xlink:href="#star"
         x="0.315"
         id="use12" />
    </g>
    <g
       id="x4">
      <use
         xlink:href="#s6"
         id="use13" />
      <use
         xlink:href="#s5"
         y="0.054"
         id="use14" />
      <use
         xlink:href="#s6"
         y="0.108"
         id="use15" />
      <use
         xlink:href="#s5"
         y="0.162"
         id="use16" />
    </g>
    <g
       id="u">
      <use
         xlink:href="#x4"
         y="-0.216"
         id="use17" />
      <use
         xlink:href="#x4"
         id="use18" />
      <use
         xlink:href="#s6"
         y="0.216"
         id="use19" />
    </g>
    <rect
       id="stripe"
       width="1235"
       height="50"
       fill="#BB133E" />
  </defs>
  <rect
     width="1235"
     height="650"
     fill="#FFF"
     id="rect19" />
  <use
     xlink:href="#stripe"
     id="use20" />
  <use
     xlink:href="#stripe"
     y="100"
     id="use21" />
  <use
     xlink:href="#stripe"
     y="200"
     id="use22" />
  <use
     xlink:href="#stripe"
     y="300"
     id="use23" />
  <use
     xlink:href="#stripe"
     y="400"
     id="use24" />
  <use
     xlink:href="#stripe"
     y="500"
     id="use25" />
  <use
     xlink:href="#stripe"
     y="600"
     id="use26" />
  <rect
     width="494"
     height="350"
     fill="#002664"
     id="rect26-5"
     x="0"
     y="0" />
  <g
     id="g28"
     transform="translate(465,556)">
    <path
       sodipodi:type="star"
       style="fill:#ffffff;stroke-dasharray:1, 2;stroke-opacity:0.378486"
       id="path27-5"
       inkscape:flatsided="false"
       sodipodi:sides="5"
       sodipodi:cx="-54.615433"
       sodipodi:cy="685.54694"
       sodipodi:r1="20"
       sodipodi:r2="7.6399999"
       sodipodi:arg1="-1.5707963"
       sodipodi:arg2="-0.9424778"
       inkscape:rounded="0"
       inkscape:randomized="0"
       d="m -54.615432,665.54694 4.490678,13.81911 14.530452,5.5e-4 -11.755059,8.54123 4.489633,13.81945 -11.755705,-8.54034 -11.755705,8.54034 4.489634,-13.81945 -11.755059,-8.54123 14.530451,-5.5e-4 z"
       inkscape:transform-center-y="-1.9098301"
       transform="translate(-382.94011,-1197.7969)" />
    <path
       sodipodi:type="star"
       style="fill:#ffffff;stroke-dasharray:1, 2;stroke-opacity:0.378486"
       id="path27-5-9"
       inkscape:flatsided="false"
       sodipodi:sides="5"
       sodipodi:cx="-54.615433"
       sodipodi:cy="685.54694"
       sodipodi:r1="20"
       sodipodi:r2="7.6399999"
       sodipodi:arg1="-1.5707963"
       sodipodi:arg2="-0.9424778"
       inkscape:rounded="0"
       inkscape:randomized="0"
       d="m -54.615432,665.54694 4.490678,13.81911 14.530452,5.5e-4 -11.755059,8.54123 4.489633,13.81945 -11.755705,-8.54034 -11.755705,8.54034 4.489634,-13.81945 -11.755059,-8.54123 14.530451,-5.5e-4 z"
       inkscape:transform-center-y="-1.9098301"
       transform="translate(-355.49566,-1154.047)" />
    <path
       sodipodi:type="star"
       style="fill:#ffffff;stroke-dasharray:1, 2;stroke-opacity:0.378486"
       id="path27-5-0"
       inkscape:flatsided="false"
       sodipodi:sides="5"
       sodipodi:cx="-54.615433"
       sodipodi:cy="685.54694"
       sodipodi:r1="20"
       sodipodi:r2="7.6399999"
       sodipodi:arg1="-1.5707963"
       sodipodi:arg2="-0.9424778"
       inkscape:rounded="0"
       inkscape:randomized="0"
       d="m -54.615432,665.54694 4.490678,13.81911 14.530452,5.5e-4 -11.755059,8.54123 4.489633,13.81945 -11.755705,-8.54034 -11.755705,8.54034 4.489634,-13.81945 -11.755059,-8.54123 14.530451,-5.5e-4 z"
       inkscape:transform-center-y="-1.9098301"
       transform="translate(-328.05125,-1197.7969)" />
    <path
       sodipodi:type="star"
       style="fill:#ffffff;stroke-dasharray:1, 2;stroke-opacity:0.378486"
       id="path27-5-9-5"
       inkscape:flatsided="false"
       sodipodi:sides="5"
       sodipodi:cx="-54.615433"
       sodipodi:cy="685.54694"
       sodipodi:r1="20"
       sodipodi:r2="7.6399999"
       sodipodi:arg1="-1.5707963"
       sodipodi:arg2="-0.9424778"
       inkscape:rounded="0"
       inkscape:randomized="0"
       d="m -54.615432,665.54694 4.490678,13.81911 14.530452,5.5e-4 -11.755059,8.54123 4.489633,13.81945 -11.755705,-8.54034 -11.755705,8.54034 4.489634,-13.81945 -11.755059,-8.54123 14.530451,-5.5e-4 z"
       inkscape:transform-center-y="-1.9098301"
       transform="translate(-300.6068,-1154.047)" />
    <path
       sodipodi:type="star"
       style="fill:#ffffff;stroke-dasharray:1, 2;stroke-opacity:0.378486"
       id="path27-5-8"
       inkscape:flatsided="false"
       sodipodi:sides="5"
       sodipodi:cx="-54.615433"
       sodipodi:cy="685.54694"
       sodipodi:r1="20"
       sodipodi:r2="7.6399999"
       sodipodi:arg1="-1.5707963"
       sodipodi:arg2="-0.9424778"
       inkscape:rounded="0"
       inkscape:randomized="0"
       d="m -54.615432,665.54694 4.490678,13.81911 14.530452,5.5e-4 -11.755059,8.54123 4.489633,13.81945 -11.755705,-8.54034 -11.755705,8.54034 4.489634,-13.81945 -11.755059,-8.54123 14.530451,-5.5e-4 z"
       inkscape:transform-center-y="-1.9098301"
       transform="translate(-273.16234,-1197.7969)" />
    <path
       sodipodi:type="star"
       style="fill:#ffffff;stroke-dasharray:1, 2;stroke-opacity:0.378486"
       id="path27-5-9-6"
       inkscape:flatsided="false"
       sodipodi:sides="5"
       sodipodi:cx="-54.615433"
       sodipodi:cy="685.54694"
       sodipodi:r1="20"
       sodipodi:r2="7.6399999"
       sodipodi:arg1="-1.5707963"
       sodipodi:arg2="-0.9424778"
       inkscape:rounded="0"
       inkscape:randomized="0"
       d="m -54.615432,665.54694 4.490678,13.81911 14.530452,5.5e-4 -11.755059,8.54123 4.489633,13.81945 -11.755705,-8.54034 -11.755705,8.54034 4.489634,-13.81945 -11.755059,-8.54123 14.530451,-5.5e-4 z"
       inkscape:transform-center-y="-1.9098301"
       transform="translate(-245.71789,-1154.047)" />
    <path
       sodipodi:type="star"
       style="fill:#ffffff;stroke-dasharray:1, 2;stroke-opacity:0.378486"
       id="path27-5-4"
       inkscape:flatsided="false"
       sodipodi:sides="5"
       sodipodi:cx="-54.615433"
       sodipodi:cy="685.54694"
       sodipodi:r1="20"
       sodipodi:r2="7.6399999"
       sodipodi:arg1="-1.5707963"
       sodipodi:arg2="-0.9424778"
       inkscape:rounded="0"
       inkscape:randomized="0"
       d="m -54.615432,665.54694 4.490678,13.81911 14.530452,5.5e-4 -11.755059,8.54123 4.489633,13.81945 -11.755705,-8.54034 -11.755705,8.54034 4.489634,-13.81945 -11.755059,-8.54123 14.530451,-5.5e-4 z"
       inkscape:transform-center-y="-1.9098301"
       transform="translate(-218.27342,-1197.7969)" />
    <path
       sodipodi:type="star"
       style="fill:#ffffff;stroke-dasharray:1, 2;stroke-opacity:0.378486"
       id="path27-5-9-3"
       inkscape:flatsided="false"
       sodipodi:sides="5"
       sodipodi:cx="-54.615433"
       sodipodi:cy="685.54694"
       sodipodi:r1="20"
       sodipodi:r2="7.6399999"
       sodipodi:arg1="-1.5707963"
       sodipodi:arg2="-0.9424778"
       inkscape:rounded="0"
       inkscape:randomized="0"
       d="m -54.615432,665.54694 4.490678,13.81911 14.530452,5.5e-4 -11.755059,8.54123 4.489633,13.81945 -11.755705,-8.54034 -11.755705,8.54034 4.489634,-13.81945 -11.755059,-8.54123 14.530451,-5.5e-4 z"
       inkscape:transform-center-y="-1.9098301"
       transform="translate(-190.82897,-1154.047)" />
    <path
       sodipodi:type="star"
       style="fill:#ffffff;stroke-dasharray:1, 2;stroke-opacity:0.378486"
       id="path27-5-0-5"
       inkscape:flatsided="false"
       sodipodi:sides="5"
       sodipodi:cx="-54.615433"
       sodipodi:cy="685.54694"
       sodipodi:r1="20"
       sodipodi:r2="7.6399999"
       sodipodi:arg1="-1.5707963"
       sodipodi:arg2="-0.9424778"
       inkscape:rounded="0"
       inkscape:randomized="0"
       d="m -54.615432,665.54694 4.490678,13.81911 14.530452,5.5e-4 -11.755059,8.54123 4.489633,13.81945 -11.755705,-8.54034 -11.755705,8.54034 4.489634,-13.81945 -11.755059,-8.54123 14.530451,-5.5e-4 z"
       inkscape:transform-center-y="-1.9098301"
       transform="translate(-163.38456,-1197.7969)" />
    <path
       sodipodi:type="star"
       style="fill:#ffffff;stroke-dasharray:1, 2;stroke-opacity:0.378486"
       id="path27-5-9-5-4"
       inkscape:flatsided="false"
       sodipodi:sides="5"
       sodipodi:cx="-54.615433"
       sodipodi:cy="685.54694"
       sodipodi:r1="20"
       sodipodi:r2="7.6399999"
       sodipodi:arg1="-1.5707963"
       sodipodi:arg2="-0.9424778"
       inkscape:rounded="0"
       inkscape:randomized="0"
       d="m -54.615432,665.54694 4.490678,13.81911 14.530452,5.5e-4 -11.755059,8.54123 4.489633,13.81945 -11.755705,-8.54034 -11.755705,8.54034 4.489634,-13.81945 -11.755059,-8.54123 14.530451,-5.5e-4 z"
       inkscape:transform-center-y="-1.9098301"
       transform="translate(-135.94011,-1154.047)" />
    <path
       sodipodi:type="star"
       style="fill:#ffffff;stroke-dasharray:1, 2;stroke-opacity:0.378486"
       id="path27-5-8-9"
       inkscape:flatsided="false"
       sodipodi:sides="5"
       sodipodi:cx="-54.615433"
       sodipodi:cy="685.54694"
       sodipodi:r1="20"
       sodipodi:r2="7.6399999"
       sodipodi:arg1="-1.5707963"
       sodipodi:arg2="-0.9424778"
       inkscape:rounded="0"
       inkscape:randomized="0"
       d="m -54.615432,665.54694 4.490678,13.81911 14.530452,5.5e-4 -11.755059,8.54123 4.489633,13.81945 -11.755705,-8.54034 -11.755705,8.54034 4.489634,-13.81945 -11.755059,-8.54123 14.530451,-5.5e-4 z"
       inkscape:transform-center-y="-1.9098301"
       transform="translate(-108.49565,-1197.7969)" />
    <path
       sodipodi:type="star"
       style="fill:#ffffff;stroke-dasharray:1, 2;stroke-opacity:0.378486"
       id="path27-5-9-6-7"
       inkscape:flatsided="false"
       sodipodi:sides="5"
       sodipodi:cx="-54.615433"
       sodipodi:cy="685.54694"
       sodipodi:r1="20"
       sodipodi:r2="7.6399999"
       sodipodi:arg1="-1.5707963"
       sodipodi:arg2="-0.9424778"
       inkscape:rounded="0"
       inkscape:randomized="0"
       d="m -54.615432,665.54694 4.490678,13.81911 14.530452,5.5e-4 -11.755059,8.54123 4.489633,13.81945 -11.755705,-8.54034 -11.755705,8.54034 4.489634,-13.81945 -11.755059,-8.54123 14.530451,-5.5e-4 z"
       inkscape:transform-center-y="-1.9098301"
       transform="translate(-81.051203,-1154.047)" />
    <path
       sodipodi:type="star"
       style="fill:#ffffff;stroke-dasharray:1, 2;stroke-opacity:0.378486"
       id="path27-5-4-8"
       inkscape:flatsided="false"
       sodipodi:sides="5"
       sodipodi:cx="-54.615433"
       sodipodi:cy="685.54694"
       sodipodi:r1="20"
       sodipodi:r2="7.6399999"
       sodipodi:arg1="-1.5707963"
       sodipodi:arg2="-0.9424778"
       inkscape:rounded="0"
       inkscape:randomized="0"
       d="m -54.615432,665.54694 4.490678,13.81911 14.530452,5.5e-4 -11.755059,8.54123 4.489633,13.81945 -11.755705,-8.54034 -11.755705,8.54034 4.489634,-13.81945 -11.755059,-8.54123 14.530451,-5.5e-4 z"
       inkscape:transform-center-y="-1.9098301"
       transform="translate(-53.606819,-1197.7969)" />
    <path
       sodipodi:type="star"
       style="fill:#ffffff;stroke-dasharray:1, 2;stroke-opacity:0.378486"
       id="path27-5-9-3-3"
       inkscape:flatsided="false"
       sodipodi:sides="5"
       sodipodi:cx="-54.615433"
       sodipodi:cy="685.54694"
       sodipodi:r1="20"
       sodipodi:r2="7.6399999"
       sodipodi:arg1="-1.5707963"
       sodipodi:arg2="-0.9424778"
       inkscape:rounded="0"
       inkscape:randomized="0"
       d="m -54.615432,665.54694 4.490678,13.81911 14.530452,5.5e-4 -11.755059,8.54123 4.489633,13.81945 -11.755705,-8.54034 -11.755705,8.54034 4.489634,-13.81945 -11.755059,-8.54123 14.530451,-5.5e-4 z"
       inkscape:transform-center-y="-1.9098301"
       transform="translate(-26.162369,-1154.047)" />
    <path
       sodipodi:type="star"
       style="fill:#ffffff;stroke-dasharray:1, 2;stroke-opacity:0.378486"
       id="path27-5-0-5-3"
       inkscape:flatsided="false"
       sodipodi:sides="5"
       sodipodi:cx="-54.615433"
       sodipodi:cy="685.54694"
       sodipodi:r1="20"
       sodipodi:r2="7.6399999"
       sodipodi:arg1="-1.5707963"
       sodipodi:arg2="-0.9424778"
       inkscape:rounded="0"
       inkscape:randomized="0"
       d="m -54.615432,665.54694 4.490678,13.81911 14.530452,5.5e-4 -11.755059,8.54123 4.489633,13.81945 -11.755705,-8.54034 -11.755705,8.54034 4.489634,-13.81945 -11.755059,-8.54123 14.530451,-5.5e-4 z"
       inkscape:transform-center-y="-1.9098301"
       transform="translate(1.2820407,-1197.7969)" />
    <path
       sodipodi:type="star"
       style="fill:#ffffff;stroke-dasharray:1, 2;stroke-opacity:0.378486"
       id="path27-5-9-5-4-0"
       inkscape:flatsided="false"
       sodipodi:sides="5"
       sodipodi:cx="-54.615433"
       sodipodi:cy="685.54694"
       sodipodi:r1="20"
       sodipodi:r2="7.6399999"
       sodipodi:arg1="-1.5707963"
       sodipodi:arg2="-0.9424778"
       inkscape:rounded="0"
       inkscape:randomized="0"
       d="m -54.615432,665.54694 4.490678,13.81911 14.530452,5.5e-4 -11.755059,8.54123 4.489633,13.81945 -11.755705,-8.54034 -11.755705,8.54034 4.489634,-13.81945 -11.755059,-8.54123 14.530451,-5.5e-4 z"
       inkscape:transform-center-y="-1.9098301"
       transform="translate(28.726491,-1154.047)" />
    <path
       sodipodi:type="star"
       style="fill:#ffffff;stroke-dasharray:1, 2;stroke-opacity:0.378486"
       id="path27-5-8-9-6"
       inkscape:flatsided="false"
       sodipodi:sides="5"
       sodipodi:cx="-54.615433"
       sodipodi:cy="685.54694"
       sodipodi:r1="20"
       sodipodi:r2="7.6399999"
       sodipodi:arg1="-1.5707963"
       sodipodi:arg2="-0.9424778"
       inkscape:rounded="0"
       inkscape:randomized="0"
       d="m -54.615432,665.54694 4.490678,13.81911 14.530452,5.5e-4 -11.755059,8.54123 4.489633,13.81945 -11.755705,-8.54034 -11.755705,8.54034 4.489634,-13.81945 -11.755059,-8.54123 14.530451,-5.5e-4 z"
       inkscape:transform-center-y="-1.9098301"
       transform="translate(56.170951,-1197.7969)" />
    <path
       sodipodi:type="star"
       style="fill:#ffffff;stroke-dasharray:1, 2;stroke-opacity:0.378486"
       id="path27-5-6-6"
       inkscape:flatsided="false"
       sodipodi:sides="5"
       sodipodi:cx="-54.615433"
       sodipodi:cy="685.54694"
       sodipodi:r1="20"
       sodipodi:r2="7.6399999"
       sodipodi:arg1="-1.5707963"
       sodipodi:arg2="-0.9424778"
       inkscape:rounded="0"
       inkscape:randomized="0"
       d="m -54.615432,665.54694 4.490678,13.81911 14.530452,5.5e-4 -11.755059,8.54123 4.489633,13.81945 -11.755705,-8.54034 -11.755705,8.54034 4.489634,-13.81945 -11.755059,-8.54123 14.530451,-5.5e-4 z"
       inkscape:transform-center-y="-1.9098301"
       transform="translate(-382.94011,-1110.297)" />
    <path
       sodipodi:type="star"
       style="fill:#ffffff;stroke-dasharray:1, 2;stroke-opacity:0.378486"
       id="path27-5-6-0"
       inkscape:flatsided="false"
       sodipodi:sides="5"
       sodipodi:cx="-54.615433"
       sodipodi:cy="685.54694"
       sodipodi:r1="20"
       sodipodi:r2="7.6399999"
       sodipodi:arg1="-1.5707963"
       sodipodi:arg2="-0.9424778"
       inkscape:rounded="0"
       inkscape:randomized="0"
       d="m -54.615432,665.54694 4.490678,13.81911 14.530452,5.5e-4 -11.755059,8.54123 4.489633,13.81945 -11.755705,-8.54034 -11.755705,8.54034 4.489634,-13.81945 -11.755059,-8.54123 14.530451,-5.5e-4 z"
       inkscape:transform-center-y="-1.9098301"
       transform="translate(-355.49566,-1066.547)" />
    <path
       sodipodi:type="star"
       style="fill:#ffffff;stroke-dasharray:1, 2;stroke-opacity:0.378486"
       id="path27-5-6-2"
       inkscape:flatsided="false"
       sodipodi:sides="5"
       sodipodi:cx="-54.615433"
       sodipodi:cy="685.54694"
       sodipodi:r1="20"
       sodipodi:r2="7.6399999"
       sodipodi:arg1="-1.5707963"
       sodipodi:arg2="-0.9424778"
       inkscape:rounded="0"
       inkscape:randomized="0"
       d="m -54.615432,665.54694 4.490678,13.81911 14.530452,5.5e-4 -11.755059,8.54123 4.489633,13.81945 -11.755705,-8.54034 -11.755705,8.54034 4.489634,-13.81945 -11.755059,-8.54123 14.530451,-5.5e-4 z"
       inkscape:transform-center-y="-1.9098301"
       transform="translate(-382.94012,-1022.797)" />
    <path
       sodipodi:type="star"
       style="fill:#ffffff;stroke-dasharray:1, 2;stroke-opacity:0.378486"
       id="path27-5-6-62"
       inkscape:flatsided="false"
       sodipodi:sides="5"
       sodipodi:cx="-54.615433"
       sodipodi:cy="685.54694"
       sodipodi:r1="20"
       sodipodi:r2="7.6399999"
       sodipodi:arg1="-1.5707963"
       sodipodi:arg2="-0.9424778"
       inkscape:rounded="0"
       inkscape:randomized="0"
       d="m -54.615432,665.54694 4.490678,13.81911 14.530452,5.5e-4 -11.755059,8.54123 4.489633,13.81945 -11.755705,-8.54034 -11.755705,8.54034 4.489634,-13.81945 -11.755059,-8.54123 14.530451,-5.5e-4 z"
       inkscape:transform-center-y="-1.9098301"
       transform="translate(-355.49566,-979.04697)" />
    <path
       sodipodi:type="star"
       style="fill:#ffffff;stroke-dasharray:1, 2;stroke-opacity:0.378486"
       id="path27-5-6-60"
       inkscape:flatsided="false"
       sodipodi:sides="5"
       sodipodi:cx="-54.615433"
       sodipodi:cy="685.54694"
       sodipodi:r1="20"
       sodipodi:r2="7.6399999"
       sodipodi:arg1="-1.5707963"
       sodipodi:arg2="-0.9424778"
       inkscape:rounded="0"
       inkscape:randomized="0"
       d="m -54.615432,665.54694 4.490678,13.81911 14.530452,5.5e-4 -11.755059,8.54123 4.489633,13.81945 -11.755705,-8.54034 -11.755705,8.54034 4.489634,-13.81945 -11.755059,-8.54123 14.530451,-5.5e-4 z"
       inkscape:transform-center-y="-1.9098301"
       transform="translate(-382.94012,-935.29695)" />
    <path
       sodipodi:type="star"
       style="fill:#ffffff;stroke-dasharray:1, 2;stroke-opacity:0.378486"
       id="path27-5-6-6-4"
       inkscape:flatsided="false"
       sodipodi:sides="5"
       sodipodi:cx="-54.615433"
       sodipodi:cy="685.54694"
       sodipodi:r1="20"
       sodipodi:r2="7.6399999"
       sodipodi:arg1="-1.5707963"
       sodipodi:arg2="-0.9424778"
       inkscape:rounded="0"
       inkscape:randomized="0"
       d="m -54.615432,665.54694 4.490678,13.81911 14.530452,5.5e-4 -11.755059,8.54123 4.489633,13.81945 -11.755705,-8.54034 -11.755705,8.54034 4.489634,-13.81945 -11.755059,-8.54123 14.530451,-5.5e-4 z"
       inkscape:transform-center-y="-1.9098301"
       transform="translate(-328.05125,-1110.297)" />
    <path
       sodipodi:type="star"
       style="fill:#ffffff;stroke-dasharray:1, 2;stroke-opacity:0.378486"
       id="path27-5-6-0-1"
       inkscape:flatsided="false"
       sodipodi:sides="5"
       sodipodi:cx="-54.615433"
       sodipodi:cy="685.54694"
       sodipodi:r1="20"
       sodipodi:r2="7.6399999"
       sodipodi:arg1="-1.5707963"
       sodipodi:arg2="-0.9424778"
       inkscape:rounded="0"
       inkscape:randomized="0"
       d="m -54.615432,665.54694 4.490678,13.81911 14.530452,5.5e-4 -11.755059,8.54123 4.489633,13.81945 -11.755705,-8.54034 -11.755705,8.54034 4.489634,-13.81945 -11.755059,-8.54123 14.530451,-5.5e-4 z"
       inkscape:transform-center-y="-1.9098301"
       transform="translate(-300.6068,-1066.547)" />
    <path
       sodipodi:type="star"
       style="fill:#ffffff;stroke-dasharray:1, 2;stroke-opacity:0.378486"
       id="path27-5-6-2-7"
       inkscape:flatsided="false"
       sodipodi:sides="5"
       sodipodi:cx="-54.615433"
       sodipodi:cy="685.54694"
       sodipodi:r1="20"
       sodipodi:r2="7.6399999"
       sodipodi:arg1="-1.5707963"
       sodipodi:arg2="-0.9424778"
       inkscape:rounded="0"
       inkscape:randomized="0"
       d="m -54.615432,665.54694 4.490678,13.81911 14.530452,5.5e-4 -11.755059,8.54123 4.489633,13.81945 -11.755705,-8.54034 -11.755705,8.54034 4.489634,-13.81945 -11.755059,-8.54123 14.530451,-5.5e-4 z"
       inkscape:transform-center-y="-1.9098301"
       transform="translate(-328.05126,-1022.797)" />
    <path
       sodipodi:type="star"
       style="fill:#ffffff;stroke-dasharray:1, 2;stroke-opacity:0.378486"
       id="path27-5-6-62-4"
       inkscape:flatsided="false"
       sodipodi:sides="5"
       sodipodi:cx="-54.615433"
       sodipodi:cy="685.54694"
       sodipodi:r1="20"
       sodipodi:r2="7.6399999"
       sodipodi:arg1="-1.5707963"
       sodipodi:arg2="-0.9424778"
       inkscape:rounded="0"
       inkscape:randomized="0"
       d="m -54.615432,665.54694 4.490678,13.81911 14.530452,5.5e-4 -11.755059,8.54123 4.489633,13.81945 -11.755705,-8.54034 -11.755705,8.54034 4.489634,-13.81945 -11.755059,-8.54123 14.530451,-5.5e-4 z"
       inkscape:transform-center-y="-1.9098301"
       transform="translate(-300.6068,-979.04691)" />
    <path
       sodipodi:type="star"
       style="fill:#ffffff;stroke-dasharray:1, 2;stroke-opacity:0.378486"
       id="path27-5-6-60-4"
       inkscape:flatsided="false"
       sodipodi:sides="5"
       sodipodi:cx="-54.615433"
       sodipodi:cy="685.54694"
       sodipodi:r1="20"
       sodipodi:r2="7.6399999"
       sodipodi:arg1="-1.5707963"
       sodipodi:arg2="-0.9424778"
       inkscape:rounded="0"
       inkscape:randomized="0"
       d="m -54.615432,665.54694 4.490678,13.81911 14.530452,5.5e-4 -11.755059,8.54123 4.489633,13.81945 -11.755705,-8.54034 -11.755705,8.54034 4.489634,-13.81945 -11.755059,-8.54123 14.530451,-5.5e-4 z"
       inkscape:transform-center-y="-1.9098301"
       transform="translate(-328.05126,-935.29689)" />
    <path
       sodipodi:type="star"
       style="fill:#ffffff;stroke-dasharray:1, 2;stroke-opacity:0.378486"
       id="path27-5-6-6-5"
       inkscape:flatsided="false"
       sodipodi:sides="5"
       sodipodi:cx="-54.615433"
       sodipodi:cy="685.54694"
       sodipodi:r1="20"
       sodipodi:r2="7.6399999"
       sodipodi:arg1="-1.5707963"
       sodipodi:arg2="-0.9424778"
       inkscape:rounded="0"
       inkscape:randomized="0"
       d="m -54.615432,665.54694 4.490678,13.81911 14.530452,5.5e-4 -11.755059,8.54123 4.489633,13.81945 -11.755705,-8.54034 -11.755705,8.54034 4.489634,-13.81945 -11.755059,-8.54123 14.530451,-5.5e-4 z"
       inkscape:transform-center-y="-1.9098301"
       transform="translate(-273.16235,-1110.2971)" />
    <path
       sodipodi:type="star"
       style="fill:#ffffff;stroke-dasharray:1, 2;stroke-opacity:0.378486"
       id="path27-5-6-0-9"
       inkscape:flatsided="false"
       sodipodi:sides="5"
       sodipodi:cx="-54.615433"
       sodipodi:cy="685.54694"
       sodipodi:r1="20"
       sodipodi:r2="7.6399999"
       sodipodi:arg1="-1.5707963"
       sodipodi:arg2="-0.9424778"
       inkscape:rounded="0"
       inkscape:randomized="0"
       d="m -54.615432,665.54694 4.490678,13.81911 14.530452,5.5e-4 -11.755059,8.54123 4.489633,13.81945 -11.755705,-8.54034 -11.755705,8.54034 4.489634,-13.81945 -11.755059,-8.54123 14.530451,-5.5e-4 z"
       inkscape:transform-center-y="-1.9098301"
       transform="translate(-245.7179,-1066.5471)" />
    <path
       sodipodi:type="star"
       style="fill:#ffffff;stroke-dasharray:1, 2;stroke-opacity:0.378486"
       id="path27-5-6-2-6"
       inkscape:flatsided="false"
       sodipodi:sides="5"
       sodipodi:cx="-54.615433"
       sodipodi:cy="685.54694"
       sodipodi:r1="20"
       sodipodi:r2="7.6399999"
       sodipodi:arg1="-1.5707963"
       sodipodi:arg2="-0.9424778"
       inkscape:rounded="0"
       inkscape:randomized="0"
       d="m -54.615432,665.54694 4.490678,13.81911 14.530452,5.5e-4 -11.755059,8.54123 4.489633,13.81945 -11.755705,-8.54034 -11.755705,8.54034 4.489634,-13.81945 -11.755059,-8.54123 14.530451,-5.5e-4 z"
       inkscape:transform-center-y="-1.9098301"
       transform="translate(-273.16236,-1022.7971)" />
    <path
       sodipodi:type="star"
       style="fill:#ffffff;stroke-dasharray:1, 2;stroke-opacity:0.378486"
       id="path27-5-6-62-41"
       inkscape:flatsided="false"
       sodipodi:sides="5"
       sodipodi:cx="-54.615433"
       sodipodi:cy="685.54694"
       sodipodi:r1="20"
       sodipodi:r2="7.6399999"
       sodipodi:arg1="-1.5707963"
       sodipodi:arg2="-0.9424778"
       inkscape:rounded="0"
       inkscape:randomized="0"
       d="m -54.615432,665.54694 4.490678,13.81911 14.530452,5.5e-4 -11.755059,8.54123 4.489633,13.81945 -11.755705,-8.54034 -11.755705,8.54034 4.489634,-13.81945 -11.755059,-8.54123 14.530451,-5.5e-4 z"
       inkscape:transform-center-y="-1.9098301"
       transform="translate(-245.7179,-979.04707)" />
    <path
       sodipodi:type="star"
       style="fill:#ffffff;stroke-dasharray:1, 2;stroke-opacity:0.378486"
       id="path27-5-6-60-7"
       inkscape:flatsided="false"
       sodipodi:sides="5"
       sodipodi:cx="-54.615433"
       sodipodi:cy="685.54694"
       sodipodi:r1="20"
       sodipodi:r2="7.6399999"
       sodipodi:arg1="-1.5707963"
       sodipodi:arg2="-0.9424778"
       inkscape:rounded="0"
       inkscape:randomized="0"
       d="m -54.615432,665.54694 4.490678,13.81911 14.530452,5.5e-4 -11.755059,8.54123 4.489633,13.81945 -11.755705,-8.54034 -11.755705,8.54034 4.489634,-13.81945 -11.755059,-8.54123 14.530451,-5.5e-4 z"
       inkscape:transform-center-y="-1.9098301"
       transform="translate(-273.16236,-935.29705)" />
    <path
       sodipodi:type="star"
       style="fill:#ffffff;stroke-dasharray:1, 2;stroke-opacity:0.378486"
       id="path27-5-6-6-57"
       inkscape:flatsided="false"
       sodipodi:sides="5"
       sodipodi:cx="-54.615433"
       sodipodi:cy="685.54694"
       sodipodi:r1="20"
       sodipodi:r2="7.6399999"
       sodipodi:arg1="-1.5707963"
       sodipodi:arg2="-0.9424778"
       inkscape:rounded="0"
       inkscape:randomized="0"
       d="m -54.615432,665.54694 4.490678,13.81911 14.530452,5.5e-4 -11.755059,8.54123 4.489633,13.81945 -11.755705,-8.54034 -11.755705,8.54034 4.489634,-13.81945 -11.755059,-8.54123 14.530451,-5.5e-4 z"
       inkscape:transform-center-y="-1.9098301"
       transform="translate(-218.27342,-1110.297)" />
    <path
       sodipodi:type="star"
       style="fill:#ffffff;stroke-dasharray:1, 2;stroke-opacity:0.378486"
       id="path27-5-6-0-3"
       inkscape:flatsided="false"
       sodipodi:sides="5"
       sodipodi:cx="-54.615433"
       sodipodi:cy="685.54694"
       sodipodi:r1="20"
       sodipodi:r2="7.6399999"
       sodipodi:arg1="-1.5707963"
       sodipodi:arg2="-0.9424778"
       inkscape:rounded="0"
       inkscape:randomized="0"
       d="m -54.615432,665.54694 4.490678,13.81911 14.530452,5.5e-4 -11.755059,8.54123 4.489633,13.81945 -11.755705,-8.54034 -11.755705,8.54034 4.489634,-13.81945 -11.755059,-8.54123 14.530451,-5.5e-4 z"
       inkscape:transform-center-y="-1.9098301"
       transform="translate(-190.82897,-1066.547)" />
    <path
       sodipodi:type="star"
       style="fill:#ffffff;stroke-dasharray:1, 2;stroke-opacity:0.378486"
       id="path27-5-6-2-2"
       inkscape:flatsided="false"
       sodipodi:sides="5"
       sodipodi:cx="-54.615433"
       sodipodi:cy="685.54694"
       sodipodi:r1="20"
       sodipodi:r2="7.6399999"
       sodipodi:arg1="-1.5707963"
       sodipodi:arg2="-0.9424778"
       inkscape:rounded="0"
       inkscape:randomized="0"
       d="m -54.615432,665.54694 4.490678,13.81911 14.530452,5.5e-4 -11.755059,8.54123 4.489633,13.81945 -11.755705,-8.54034 -11.755705,8.54034 4.489634,-13.81945 -11.755059,-8.54123 14.530451,-5.5e-4 z"
       inkscape:transform-center-y="-1.9098301"
       transform="translate(-218.27343,-1022.797)" />
    <path
       sodipodi:type="star"
       style="fill:#ffffff;stroke-dasharray:1, 2;stroke-opacity:0.378486"
       id="path27-5-6-62-8"
       inkscape:flatsided="false"
       sodipodi:sides="5"
       sodipodi:cx="-54.615433"
       sodipodi:cy="685.54694"
       sodipodi:r1="20"
       sodipodi:r2="7.6399999"
       sodipodi:arg1="-1.5707963"
       sodipodi:arg2="-0.9424778"
       inkscape:rounded="0"
       inkscape:randomized="0"
       d="m -54.615432,665.54694 4.490678,13.81911 14.530452,5.5e-4 -11.755059,8.54123 4.489633,13.81945 -11.755705,-8.54034 -11.755705,8.54034 4.489634,-13.81945 -11.755059,-8.54123 14.530451,-5.5e-4 z"
       inkscape:transform-center-y="-1.9098301"
       transform="translate(-190.82897,-979.04696)" />
    <path
       sodipodi:type="star"
       style="fill:#ffffff;stroke-dasharray:1, 2;stroke-opacity:0.378486"
       id="path27-5-6-60-3"
       inkscape:flatsided="false"
       sodipodi:sides="5"
       sodipodi:cx="-54.615433"
       sodipodi:cy="685.54694"
       sodipodi:r1="20"
       sodipodi:r2="7.6399999"
       sodipodi:arg1="-1.5707963"
       sodipodi:arg2="-0.9424778"
       inkscape:rounded="0"
       inkscape:randomized="0"
       d="m -54.615432,665.54694 4.490678,13.81911 14.530452,5.5e-4 -11.755059,8.54123 4.489633,13.81945 -11.755705,-8.54034 -11.755705,8.54034 4.489634,-13.81945 -11.755059,-8.54123 14.530451,-5.5e-4 z"
       inkscape:transform-center-y="-1.9098301"
       transform="translate(-218.27343,-935.29696)" />
    <path
       sodipodi:type="star"
       style="fill:#ffffff;stroke-dasharray:1, 2;stroke-opacity:0.378486"
       id="path27-5-6-6-1"
       inkscape:flatsided="false"
       sodipodi:sides="5"
       sodipodi:cx="-54.615433"
       sodipodi:cy="685.54694"
       sodipodi:r1="20"
       sodipodi:r2="7.6399999"
       sodipodi:arg1="-1.5707963"
       sodipodi:arg2="-0.9424778"
       inkscape:rounded="0"
       inkscape:randomized="0"
       d="m -54.615432,665.54694 4.490678,13.81911 14.530452,5.5e-4 -11.755059,8.54123 4.489633,13.81945 -11.755705,-8.54034 -11.755705,8.54034 4.489634,-13.81945 -11.755059,-8.54123 14.530451,-5.5e-4 z"
       inkscape:transform-center-y="-1.9098301"
       transform="translate(-163.38458,-1110.2971)" />
    <path
       sodipodi:type="star"
       style="fill:#ffffff;stroke-dasharray:1, 2;stroke-opacity:0.378486"
       id="path27-5-6-0-90"
       inkscape:flatsided="false"
       sodipodi:sides="5"
       sodipodi:cx="-54.615433"
       sodipodi:cy="685.54694"
       sodipodi:r1="20"
       sodipodi:r2="7.6399999"
       sodipodi:arg1="-1.5707963"
       sodipodi:arg2="-0.9424778"
       inkscape:rounded="0"
       inkscape:randomized="0"
       d="m -54.615432,665.54694 4.490678,13.81911 14.530452,5.5e-4 -11.755059,8.54123 4.489633,13.81945 -11.755705,-8.54034 -11.755705,8.54034 4.489634,-13.81945 -11.755059,-8.54123 14.530451,-5.5e-4 z"
       inkscape:transform-center-y="-1.9098301"
       transform="translate(-135.94013,-1066.5471)" />
    <path
       sodipodi:type="star"
       style="fill:#ffffff;stroke-dasharray:1, 2;stroke-opacity:0.378486"
       id="path27-5-6-2-74"
       inkscape:flatsided="false"
       sodipodi:sides="5"
       sodipodi:cx="-54.615433"
       sodipodi:cy="685.54694"
       sodipodi:r1="20"
       sodipodi:r2="7.6399999"
       sodipodi:arg1="-1.5707963"
       sodipodi:arg2="-0.9424778"
       inkscape:rounded="0"
       inkscape:randomized="0"
       d="m -54.615432,665.54694 4.490678,13.81911 14.530452,5.5e-4 -11.755059,8.54123 4.489633,13.81945 -11.755705,-8.54034 -11.755705,8.54034 4.489634,-13.81945 -11.755059,-8.54123 14.530451,-5.5e-4 z"
       inkscape:transform-center-y="-1.9098301"
       transform="translate(-163.38459,-1022.7971)" />
    <path
       sodipodi:type="star"
       style="fill:#ffffff;stroke-dasharray:1, 2;stroke-opacity:0.378486"
       id="path27-5-6-62-415"
       inkscape:flatsided="false"
       sodipodi:sides="5"
       sodipodi:cx="-54.615433"
       sodipodi:cy="685.54694"
       sodipodi:r1="20"
       sodipodi:r2="7.6399999"
       sodipodi:arg1="-1.5707963"
       sodipodi:arg2="-0.9424778"
       inkscape:rounded="0"
       inkscape:randomized="0"
       d="m -54.615432,665.54694 4.490678,13.81911 14.530452,5.5e-4 -11.755059,8.54123 4.489633,13.81945 -11.755705,-8.54034 -11.755705,8.54034 4.489634,-13.81945 -11.755059,-8.54123 14.530451,-5.5e-4 z"
       inkscape:transform-center-y="-1.9098301"
       transform="translate(-135.94013,-979.04704)" />
    <path
       sodipodi:type="star"
       style="fill:#ffffff;stroke-dasharray:1, 2;stroke-opacity:0.378486"
       id="path27-5-6-60-2"
       inkscape:flatsided="false"
       sodipodi:sides="5"
       sodipodi:cx="-54.615433"
       sodipodi:cy="685.54694"
       sodipodi:r1="20"
       sodipodi:r2="7.6399999"
       sodipodi:arg1="-1.5707963"
       sodipodi:arg2="-0.9424778"
       inkscape:rounded="0"
       inkscape:randomized="0"
       d="m -54.615432,665.54694 4.490678,13.81911 14.530452,5.5e-4 -11.755059,8.54123 4.489633,13.81945 -11.755705,-8.54034 -11.755705,8.54034 4.489634,-13.81945 -11.755059,-8.54123 14.530451,-5.5e-4 z"
       inkscape:transform-center-y="-1.9098301"
       transform="translate(-163.38459,-935.29704)" />
    <path
       sodipodi:type="star"
       style="fill:#ffffff;stroke-dasharray:1, 2;stroke-opacity:0.378486"
       id="path27-5-6-6-6"
       inkscape:flatsided="false"
       sodipodi:sides="5"
       sodipodi:cx="-54.615433"
       sodipodi:cy="685.54694"
       sodipodi:r1="20"
       sodipodi:r2="7.6399999"
       sodipodi:arg1="-1.5707963"
       sodipodi:arg2="-0.9424778"
       inkscape:rounded="0"
       inkscape:randomized="0"
       d="m -54.615432,665.54694 4.490678,13.81911 14.530452,5.5e-4 -11.755059,8.54123 4.489633,13.81945 -11.755705,-8.54034 -11.755705,8.54034 4.489634,-13.81945 -11.755059,-8.54123 14.530451,-5.5e-4 z"
       inkscape:transform-center-y="-1.9098301"
       transform="translate(-108.49573,-1110.297)" />
    <path
       sodipodi:type="star"
       style="fill:#ffffff;stroke-dasharray:1, 2;stroke-opacity:0.378486"
       id="path27-5-6-0-8"
       inkscape:flatsided="false"
       sodipodi:sides="5"
       sodipodi:cx="-54.615433"
       sodipodi:cy="685.54694"
       sodipodi:r1="20"
       sodipodi:r2="7.6399999"
       sodipodi:arg1="-1.5707963"
       sodipodi:arg2="-0.9424778"
       inkscape:rounded="0"
       inkscape:randomized="0"
       d="m -54.615432,665.54694 4.490678,13.81911 14.530452,5.5e-4 -11.755059,8.54123 4.489633,13.81945 -11.755705,-8.54034 -11.755705,8.54034 4.489634,-13.81945 -11.755059,-8.54123 14.530451,-5.5e-4 z"
       inkscape:transform-center-y="-1.9098301"
       transform="translate(-81.051278,-1066.547)" />
    <path
       sodipodi:type="star"
       style="fill:#ffffff;stroke-dasharray:1, 2;stroke-opacity:0.378486"
       id="path27-5-6-2-0"
       inkscape:flatsided="false"
       sodipodi:sides="5"
       sodipodi:cx="-54.615433"
       sodipodi:cy="685.54694"
       sodipodi:r1="20"
       sodipodi:r2="7.6399999"
       sodipodi:arg1="-1.5707963"
       sodipodi:arg2="-0.9424778"
       inkscape:rounded="0"
       inkscape:randomized="0"
       d="m -54.615432,665.54694 4.490678,13.81911 14.530452,5.5e-4 -11.755059,8.54123 4.489633,13.81945 -11.755705,-8.54034 -11.755705,8.54034 4.489634,-13.81945 -11.755059,-8.54123 14.530451,-5.5e-4 z"
       inkscape:transform-center-y="-1.9098301"
       transform="translate(-108.49574,-1022.797)" />
    <path
       sodipodi:type="star"
       style="fill:#ffffff;stroke-dasharray:1, 2;stroke-opacity:0.378486"
       id="path27-5-6-62-3"
       inkscape:flatsided="false"
       sodipodi:sides="5"
       sodipodi:cx="-54.615433"
       sodipodi:cy="685.54694"
       sodipodi:r1="20"
       sodipodi:r2="7.6399999"
       sodipodi:arg1="-1.5707963"
       sodipodi:arg2="-0.9424778"
       inkscape:rounded="0"
       inkscape:randomized="0"
       d="m -54.615432,665.54694 4.490678,13.81911 14.530452,5.5e-4 -11.755059,8.54123 4.489633,13.81945 -11.755705,-8.54034 -11.755705,8.54034 4.489634,-13.81945 -11.755059,-8.54123 14.530451,-5.5e-4 z"
       inkscape:transform-center-y="-1.9098301"
       transform="translate(-81.051278,-979.04696)" />
    <path
       sodipodi:type="star"
       style="fill:#ffffff;stroke-dasharray:1, 2;stroke-opacity:0.378486"
       id="path27-5-6-60-5"
       inkscape:flatsided="false"
       sodipodi:sides="5"
       sodipodi:cx="-54.615433"
       sodipodi:cy="685.54694"
       sodipodi:r1="20"
       sodipodi:r2="7.6399999"
       sodipodi:arg1="-1.5707963"
       sodipodi:arg2="-0.9424778"
       inkscape:rounded="0"
       inkscape:randomized="0"
       d="m -54.615432,665.54694 4.490678,13.81911 14.530452,5.5e-4 -11.755059,8.54123 4.489633,13.81945 -11.755705,-8.54034 -11.755705,8.54034 4.489634,-13.81945 -11.755059,-8.54123 14.530451,-5.5e-4 z"
       inkscape:transform-center-y="-1.9098301"
       transform="translate(-108.49574,-935.29694)" />
    <path
       sodipodi:type="star"
       style="fill:#ffffff;stroke-dasharray:1, 2;stroke-opacity:0.378486"
       id="path27-5-6-6-6-7"
       inkscape:flatsided="false"
       sodipodi:sides="5"
       sodipodi:cx="-54.615433"
       sodipodi:cy="685.54694"
       sodipodi:r1="20"
       sodipodi:r2="7.6399999"
       sodipodi:arg1="-1.5707963"
       sodipodi:arg2="-0.9424778"
       inkscape:rounded="0"
       inkscape:randomized="0"
       d="m -54.615432,665.54694 4.490678,13.81911 14.530452,5.5e-4 -11.755059,8.54123 4.489633,13.81945 -11.755705,-8.54034 -11.755705,8.54034 4.489634,-13.81945 -11.755059,-8.54123 14.530451,-5.5e-4 z"
       inkscape:transform-center-y="-1.9098301"
       transform="translate(-53.606819,-1110.2971)" />
    <path
       sodipodi:type="star"
       style="fill:#ffffff;stroke-dasharray:1, 2;stroke-opacity:0.378486"
       id="path27-5-6-0-8-9"
       inkscape:flatsided="false"
       sodipodi:sides="5"
       sodipodi:cx="-54.615433"
       sodipodi:cy="685.54694"
       sodipodi:r1="20"
       sodipodi:r2="7.6399999"
       sodipodi:arg1="-1.5707963"
       sodipodi:arg2="-0.9424778"
       inkscape:rounded="0"
       inkscape:randomized="0"
       d="m -54.615432,665.54694 4.490678,13.81911 14.530452,5.5e-4 -11.755059,8.54123 4.489633,13.81945 -11.755705,-8.54034 -11.755705,8.54034 4.489634,-13.81945 -11.755059,-8.54123 14.530451,-5.5e-4 z"
       inkscape:transform-center-y="-1.9098301"
       transform="translate(-26.162367,-1066.5471)" />
    <path
       sodipodi:type="star"
       style="fill:#ffffff;stroke-dasharray:1, 2;stroke-opacity:0.378486"
       id="path27-5-6-2-0-5"
       inkscape:flatsided="false"
       sodipodi:sides="5"
       sodipodi:cx="-54.615433"
       sodipodi:cy="685.54694"
       sodipodi:r1="20"
       sodipodi:r2="7.6399999"
       sodipodi:arg1="-1.5707963"
       sodipodi:arg2="-0.9424778"
       inkscape:rounded="0"
       inkscape:randomized="0"
       d="m -54.615432,665.54694 4.490678,13.81911 14.530452,5.5e-4 -11.755059,8.54123 4.489633,13.81945 -11.755705,-8.54034 -11.755705,8.54034 4.489634,-13.81945 -11.755059,-8.54123 14.530451,-5.5e-4 z"
       inkscape:transform-center-y="-1.9098301"
       transform="translate(-53.606829,-1022.7971)" />
    <path
       sodipodi:type="star"
       style="fill:#ffffff;stroke-dasharray:1, 2;stroke-opacity:0.378486"
       id="path27-5-6-62-3-5"
       inkscape:flatsided="false"
       sodipodi:sides="5"
       sodipodi:cx="-54.615433"
       sodipodi:cy="685.54694"
       sodipodi:r1="20"
       sodipodi:r2="7.6399999"
       sodipodi:arg1="-1.5707963"
       sodipodi:arg2="-0.9424778"
       inkscape:rounded="0"
       inkscape:randomized="0"
       d="m -54.615432,665.54694 4.490678,13.81911 14.530452,5.5e-4 -11.755059,8.54123 4.489633,13.81945 -11.755705,-8.54034 -11.755705,8.54034 4.489634,-13.81945 -11.755059,-8.54123 14.530451,-5.5e-4 z"
       inkscape:transform-center-y="-1.9098301"
       transform="translate(-26.162367,-979.04704)" />
    <path
       sodipodi:type="star"
       style="fill:#ffffff;stroke-dasharray:1, 2;stroke-opacity:0.378486"
       id="path27-5-6-60-5-1"
       inkscape:flatsided="false"
       sodipodi:sides="5"
       sodipodi:cx="-54.615433"
       sodipodi:cy="685.54694"
       sodipodi:r1="20"
       sodipodi:r2="7.6399999"
       sodipodi:arg1="-1.5707963"
       sodipodi:arg2="-0.9424778"
       inkscape:rounded="0"
       inkscape:randomized="0"
       d="m -54.615432,665.54694 4.490678,13.81911 14.530452,5.5e-4 -11.755059,8.54123 4.489633,13.81945 -11.755705,-8.54034 -11.755705,8.54034 4.489634,-13.81945 -11.755059,-8.54123 14.530451,-5.5e-4 z"
       inkscape:transform-center-y="-1.9098301"
       transform="translate(-53.606829,-935.29702)" />
    <path
       sodipodi:type="star"
       style="fill:#ffffff;stroke-dasharray:1, 2;stroke-opacity:0.378486"
       id="path27-5-6-6-6-8"
       inkscape:flatsided="false"
       sodipodi:sides="5"
       sodipodi:cx="-54.615433"
       sodipodi:cy="685.54694"
       sodipodi:r1="20"
       sodipodi:r2="7.6399999"
       sodipodi:arg1="-1.5707963"
       sodipodi:arg2="-0.9424778"
       inkscape:rounded="0"
       inkscape:randomized="0"
       d="m -54.615432,665.54694 4.490678,13.81911 14.530452,5.5e-4 -11.755059,8.54123 4.489633,13.81945 -11.755705,-8.54034 -11.755705,8.54034 4.489634,-13.81945 -11.755059,-8.54123 14.530451,-5.5e-4 z"
       inkscape:transform-center-y="-1.9098301"
       transform="translate(1.2820814,-1110.297)" />
    <path
       sodipodi:type="star"
       style="fill:#ffffff;stroke-dasharray:1, 2;stroke-opacity:0.378486"
       id="path27-5-6-0-8-3"
       inkscape:flatsided="false"
       sodipodi:sides="5"
       sodipodi:cx="-54.615433"
       sodipodi:cy="685.54694"
       sodipodi:r1="20"
       sodipodi:r2="7.6399999"
       sodipodi:arg1="-1.5707963"
       sodipodi:arg2="-0.9424778"
       inkscape:rounded="0"
       inkscape:randomized="0"
       d="m -54.615432,665.54694 4.490678,13.81911 14.530452,5.5e-4 -11.755059,8.54123 4.489633,13.81945 -11.755705,-8.54034 -11.755705,8.54034 4.489634,-13.81945 -11.755059,-8.54123 14.530451,-5.5e-4 z"
       inkscape:transform-center-y="-1.9098301"
       transform="translate(28.726534,-1066.547)" />
    <path
       sodipodi:type="star"
       style="fill:#ffffff;stroke-dasharray:1, 2;stroke-opacity:0.378486"
       id="path27-5-6-2-0-6"
       inkscape:flatsided="false"
       sodipodi:sides="5"
       sodipodi:cx="-54.615433"
       sodipodi:cy="685.54694"
       sodipodi:r1="20"
       sodipodi:r2="7.6399999"
       sodipodi:arg1="-1.5707963"
       sodipodi:arg2="-0.9424778"
       inkscape:rounded="0"
       inkscape:randomized="0"
       d="m -54.615432,665.54694 4.490678,13.81911 14.530452,5.5e-4 -11.755059,8.54123 4.489633,13.81945 -11.755705,-8.54034 -11.755705,8.54034 4.489634,-13.81945 -11.755059,-8.54123 14.530451,-5.5e-4 z"
       inkscape:transform-center-y="-1.9098301"
       transform="translate(1.2820714,-1022.797)" />
    <path
       sodipodi:type="star"
       style="fill:#ffffff;stroke-dasharray:1, 2;stroke-opacity:0.378486"
       id="path27-5-6-62-3-1"
       inkscape:flatsided="false"
       sodipodi:sides="5"
       sodipodi:cx="-54.615433"
       sodipodi:cy="685.54694"
       sodipodi:r1="20"
       sodipodi:r2="7.6399999"
       sodipodi:arg1="-1.5707963"
       sodipodi:arg2="-0.9424778"
       inkscape:rounded="0"
       inkscape:randomized="0"
       d="m -54.615432,665.54694 4.490678,13.81911 14.530452,5.5e-4 -11.755059,8.54123 4.489633,13.81945 -11.755705,-8.54034 -11.755705,8.54034 4.489634,-13.81945 -11.755059,-8.54123 14.530451,-5.5e-4 z"
       inkscape:transform-center-y="-1.9098301"
       transform="translate(28.726534,-979.04694)" />
    <path
       sodipodi:type="star"
       style="fill:#ffffff;stroke-dasharray:1, 2;stroke-opacity:0.378486"
       id="path27-5-6-60-5-4"
       inkscape:flatsided="false"
       sodipodi:sides="5"
       sodipodi:cx="-54.615433"
       sodipodi:cy="685.54694"
       sodipodi:r1="20"
       sodipodi:r2="7.6399999"
       sodipodi:arg1="-1.5707963"
       sodipodi:arg2="-0.9424778"
       inkscape:rounded="0"
       inkscape:randomized="0"
       d="m -54.615432,665.54694 4.490678,13.81911 14.530452,5.5e-4 -11.755059,8.54123 4.489633,13.81945 -11.755705,-8.54034 -11.755705,8.54034 4.489634,-13.81945 -11.755059,-8.54123 14.530451,-5.5e-4 z"
       inkscape:transform-center-y="-1.9098301"
       transform="translate(1.2820714,-935.29692)" />
    <path
       sodipodi:type="star"
       style="fill:#ffffff;stroke-dasharray:1, 2;stroke-opacity:0.378486"
       id="path27-5-6-6-6-4"
       inkscape:flatsided="false"
       sodipodi:sides="5"
       sodipodi:cx="-54.615433"
       sodipodi:cy="685.54694"
       sodipodi:r1="20"
       sodipodi:r2="7.6399999"
       sodipodi:arg1="-1.5707963"
       sodipodi:arg2="-0.9424778"
       inkscape:rounded="0"
       inkscape:randomized="0"
       d="m -54.615432,665.54694 4.490678,13.81911 14.530452,5.5e-4 -11.755059,8.54123 4.489633,13.81945 -11.755705,-8.54034 -11.755705,8.54034 4.489634,-13.81945 -11.755059,-8.54123 14.530451,-5.5e-4 z"
       inkscape:transform-center-y="-1.9098301"
       transform="translate(56.17099,-1110.2971)" />
    <path
       sodipodi:type="star"
       style="fill:#ffffff;stroke-dasharray:1, 2;stroke-opacity:0.378486"
       id="path27-5-6-2-0-9"
       inkscape:flatsided="false"
       sodipodi:sides="5"
       sodipodi:cx="-54.615433"
       sodipodi:cy="685.54694"
       sodipodi:r1="20"
       sodipodi:r2="7.6399999"
       sodipodi:arg1="-1.5707963"
       sodipodi:arg2="-0.9424778"
       inkscape:rounded="0"
       inkscape:randomized="0"
       d="m -54.615432,665.54694 4.490678,13.81911 14.530452,5.5e-4 -11.755059,8.54123 4.489633,13.81945 -11.755705,-8.54034 -11.755705,8.54034 4.489634,-13.81945 -11.755059,-8.54123 14.530451,-5.5e-4 z"
       inkscape:transform-center-y="-1.9098301"
       transform="translate(56.17098,-1022.7971)" />
    <path
       sodipodi:type="star"
       style="fill:#ffffff;stroke-dasharray:1, 2;stroke-opacity:0.378486"
       id="path27-5-6-60-5-0"
       inkscape:flatsided="false"
       sodipodi:sides="5"
       sodipodi:cx="-54.615433"
       sodipodi:cy="685.54694"
       sodipodi:r1="20"
       sodipodi:r2="7.6399999"
       sodipodi:arg1="-1.5707963"
       sodipodi:arg2="-0.9424778"
       inkscape:rounded="0"
       inkscape:randomized="0"
       d="m -54.615432,665.54694 4.490678,13.81911 14.530452,5.5e-4 -11.755059,8.54123 4.489633,13.81945 -11.755705,-8.54034 -11.755705,8.54034 4.489634,-13.81945 -11.755059,-8.54123 14.530451,-5.5e-4 z"
       inkscape:transform-center-y="-1.9098301"
       transform="translate(56.17098,-935.29703)" />
  </g>
</svg>
